PathFileType	4	(X/Y/Z)	c:/Users/goper/Files/vsCode/490R/osim_files/A06/A06_Static.trc
DataRate	CameraRate	NumFrames	NumMarkers	Units                	OrigDataRate	OrigDataStartFrame	OrigNumFrames
120.00	120.00	9	36	mm	120.0	165	1315
                Frame#	Time	LPSIS			LASIS			LTH1			LTH2			LTH3			LTH4			LLFE			LMFE			LSH1			LSH2			LSH3			LSH4			LLMAL			LMMAL			LCAL			LMTP5			LTOE			LMTP1			RPSIS			RASIS			RTH1			RTH2			RTH3			RTH4			RLFE			RMFE			RSH1			RSH2			RSH3			RSH4			RLMAL			RMMAL			RCAL			RMTP1			RTOE			RMTP5		
		X1	Y1	Z1	X2	Y2	Z2	X3	Y3	Z3	X4	Y4	Z4	X5	Y5	Z5	X6	Y6	Z6	X7	Y7	Z7	X8	Y8	Z8	X9	Y9	Z9	X10	Y10	Z10	X11	Y11	Z11	X12	Y12	Z12	X13	Y13	Z13	X14	Y14	Z14	X15	Y15	Z15	X16	Y16	Z16	X17	Y17	Z17	X18	Y18	Z18	X19	Y19	Z19	X20	Y20	Z20	X21	Y21	Z21	X22	Y22	Z22	X23	Y23	Z23	X24	Y24	Z24	X25	Y25	Z25	X26	Y26	Z26	X27	Y27	Z27	X28	Y28	Z28	X29	Y29	Z29	X30	Y30	Z30	X31	Y31	Z31	X32	Y32	Z32	X33	Y33	Z33	X34	Y34	Z34	X35	Y35	Z35	X36	Y36	Z36

165	1.36667	-298.70300	985.37775	427.60223	-113.05693	948.96899	347.06549	-218.25209	599.58893	300.48605	-214.66626	556.96063	305.11813	-155.09802	594.66797	314.82629	-163.02524	552.67139	316.95328	-197.54681	480.76639	321.96741	-199.33694	470.55365	429.93317	-263.88208	390.31384	305.07196	-258.93170	344.79327	297.64709	-201.78423	390.23401	310.22446	-204.48640	348.26865	304.98538	-253.89180	92.65002	333.57336	-235.13007	110.90224	416.39124	-314.67175	77.90886	383.70053	-134.59988	42.21180	312.36276	-94.25470	62.45940	367.73605	-117.97565	55.31061	407.12064	-287.94141	996.12830	558.40771	-113.50588	953.04657	611.40448	-243.65529	601.28925	649.57562	-242.32213	558.53284	650.41510	-181.33124	597.14435	641.54456	-188.02986	553.20392	646.38538	-227.36946	440.06439	630.23450	-227.40204	437.92218	541.20428	-261.69403	286.41577	623.77209	-264.75751	238.83713	624.15356	-202.40027	277.80716	611.98590	-213.83272	230.81364	618.35010	-280.40137	102.48815	638.53033	-267.63385	101.50108	555.25354	-338.12415	81.20738	592.28253	-136.45958	53.91440	562.25281	-120.80624	65.11765	602.38330	-147.60146	51.68417	649.93964
166	1.37500	-298.72903	985.36267	427.58698	-113.11086	948.95618	347.05032	-218.24931	599.58624	300.46957	-214.68295	556.96191	305.10391	-155.13229	594.67004	314.81265	-163.06622	552.67047	316.95627	-197.56693	480.78009	321.95746	-199.33012	470.58026	429.89352	-263.92038	390.31009	305.06796	-258.95111	344.77887	297.64853	-201.82181	390.21817	310.20328	-204.49930	348.26956	304.98154	-253.89876	92.65231	333.57446	-235.11911	110.91600	416.36389	-314.67862	77.89182	383.70999	-134.59012	42.22698	312.34778	-94.23602	62.48783	367.72223	-117.94440	55.35039	407.06760	-288.00543	996.13922	558.37396	-113.54945	953.07831	611.38110	-243.69556	601.32239	649.54431	-242.38933	558.54633	650.38318	-181.38530	597.16638	641.51440	-188.04974	553.22162	646.36987	-227.41330	440.07010	630.20905	-227.44351	437.90173	541.19580	-261.73978	286.42468	623.73358	-264.76154	238.85664	624.11786	-202.39899	277.82419	611.97144	-213.81145	230.83191	618.32300	-280.44629	102.58672	638.47406	-267.63696	101.48586	555.25616	-338.09918	81.20192	592.26984	-136.46294	53.89124	562.25183	-120.80102	65.11550	602.39398	-147.60744	51.67837	649.94324
167	1.38333	-298.78925	985.36090	427.55435	-113.13715	948.97070	347.04218	-218.29449	599.59259	300.44705	-214.71172	556.96863	305.09238	-155.16719	594.66418	314.80685	-163.10114	552.68298	316.94092	-197.58728	480.77853	321.95300	-199.39755	470.53641	429.89932	-263.90753	390.31039	305.02762	-258.98221	344.77646	297.64713	-201.81461	390.23334	310.19696	-204.52841	348.26434	304.97049	-253.90573	92.63442	333.57187	-235.14037	110.87798	416.37283	-314.66895	77.88274	383.71072	-134.59302	42.21004	312.35495	-94.24556	62.45638	367.74179	-117.92835	55.34520	407.08786	-288.06729	996.14209	558.35333	-113.61520	953.04395	611.36340	-243.72516	601.29590	649.53107	-242.42754	558.51947	650.36761	-181.41188	597.12463	641.49518	-188.10040	553.20355	646.35883	-227.41275	440.04684	630.20508	-227.45790	437.90436	541.18567	-261.75201	286.39816	623.74426	-264.78278	238.81464	624.11761	-202.41312	277.82172	611.97852	-213.86113	230.79233	618.33209	-280.39587	102.56921	638.47504	-267.65643	101.48104	555.27417	-338.08487	81.16279	592.27490	-136.46388	53.88909	562.25330	-120.81313	65.09852	602.39471	-147.58659	51.67450	649.95227
168	1.39167	-298.84247	985.36853	427.54721	-113.19570	948.97455	347.03922	-218.31535	599.59924	300.43634	-214.72630	556.96466	305.07681	-155.18083	594.67596	314.79553	-163.13673	552.69604	316.92734	-197.60966	480.78217	321.93323	-199.47534	470.51825	429.89548	-263.97229	390.30615	305.04092	-259.01724	344.78241	297.63074	-201.82120	390.26331	310.18692	-204.54422	348.28818	304.96906	-253.91422	92.64164	333.57489	-235.16443	110.86334	416.38898	-314.69278	77.91222	383.71072	-134.62099	42.19107	312.37332	-94.26131	62.44595	367.77936	-118.01033	55.29395	407.13995	-288.15445	996.14294	558.36676	-113.75322	953.02899	611.36572	-243.85730	601.26685	649.53625	-242.51903	558.50403	650.36975	-181.52806	597.07727	641.50793	-188.17400	553.18542	646.36420	-227.48540	440.03653	630.20398	-227.48878	437.88260	541.17572	-261.78854	286.38531	623.75763	-264.84412	238.78355	624.13696	-202.48842	277.78888	611.99835	-213.90010	230.77026	618.35535	-280.46323	102.56905	638.55176	-267.66376	101.47594	555.26849	-338.15259	81.16583	592.31055	-136.46851	53.89949	562.26221	-120.82593	65.10760	602.39655	-147.65837	51.63773	649.98889
169	1.40000	-298.89838	985.39032	427.52960	-113.24662	949.00049	347.01324	-218.36623	599.61993	300.43994	-214.81221	556.97009	305.08749	-155.22040	594.67792	314.76770	-163.18459	552.72803	316.91293	-197.66025	480.81027	321.92175	-199.49266	470.50412	429.89929	-264.02832	390.31290	305.03833	-259.05582	344.78732	297.63303	-201.86475	390.27676	310.17508	-204.57736	348.29556	304.95215	-253.92177	92.64547	333.57227	-235.15279	110.84081	416.40283	-314.68686	77.89390	383.73029	-134.59836	42.18393	312.38660	-94.25511	62.41733	367.80408	-117.99447	55.27765	407.14612	-288.13614	996.09717	558.37842	-113.76955	953.02710	611.36035	-243.85359	601.25586	649.54456	-242.53648	558.50745	650.37775	-181.53117	597.04785	641.50793	-188.20726	553.18732	646.35004	-227.51497	440.02762	630.22412	-227.54697	437.90390	541.15979	-261.82037	286.37326	623.77252	-264.82687	238.77377	624.15063	-202.50912	277.77347	612.01184	-213.89873	230.76009	618.36646	-280.46402	102.54779	638.58118	-267.66202	101.50317	555.26074	-338.06613	81.10281	592.34430	-136.47346	53.93093	562.26855	-120.79376	65.14468	602.38318	-147.64682	51.64465	650.00171
170	1.40833	-298.97830	985.42114	427.52426	-113.30836	949.02350	347.00558	-218.41672	599.62787	300.42371	-214.84036	556.98163	305.07104	-155.28603	594.69025	314.76712	-163.24648	552.73566	316.88998	-197.71223	480.81918	321.89627	-199.53725	470.46552	430.04538	-264.04544	390.32254	305.01041	-259.09833	344.79019	297.62228	-201.90936	390.27527	310.15244	-204.59477	348.31842	304.92804	-253.93828	92.66189	333.57178	-235.17943	110.83212	416.43311	-314.70215	77.91625	383.72549	-134.63100	42.16565	312.40439	-94.27683	62.40634	367.80682	-118.00442	55.27701	407.15662	-288.21732	996.08118	558.37402	-113.89198	953.01056	611.36536	-243.90190	601.24561	649.54333	-242.57121	558.49231	650.38251	-181.60223	597.05261	641.50848	-188.31049	553.16968	646.36316	-227.54236	440.01422	630.22034	-227.58620	437.91699	541.15741	-261.82846	286.36502	623.77893	-264.83200	238.76376	624.16827	-202.55525	277.75201	612.02197	-213.93507	230.77068	618.36664	-280.47745	102.54166	638.58282	-267.66867	101.50423	555.24976	-338.05368	81.06527	592.37872	-136.49730	53.92998	562.27100	-120.82074	65.16092	602.36853	-147.65778	51.63734	649.99371
171	1.41667	-299.05380	985.42908	427.47202	-113.35368	949.03906	346.98209	-218.45764	599.65582	300.39700	-214.84714	557.00024	305.03925	-155.32416	594.70001	314.74176	-163.29170	552.75909	316.86343	-197.75316	480.81955	321.86670	-199.57007	470.51840	430.00662	-264.08926	390.32892	304.98340	-259.12180	344.80539	297.59399	-201.95699	390.28156	310.12457	-204.63034	348.32617	304.89047	-253.92197	92.67911	333.56647	-235.20685	110.87846	416.40878	-314.66187	77.90395	383.70410	-134.63869	42.19540	312.37662	-94.29216	62.43738	367.76981	-118.01640	55.30180	407.14151	-288.32465	996.12811	558.32422	-113.94466	953.04474	611.33063	-243.99780	601.28992	649.51166	-242.65291	558.53662	650.33795	-181.67532	597.06781	641.46722	-188.33879	553.22906	646.32678	-227.62683	440.05322	630.19525	-227.65152	437.92322	541.14417	-261.87131	286.40018	623.74377	-264.92371	238.81830	624.13043	-202.56737	277.80374	611.99432	-213.97475	230.79605	618.35962	-280.53625	102.58017	638.57129	-267.69098	101.51380	555.24957	-338.18515	81.15583	592.32983	-136.50327	53.93039	562.25555	-120.82225	65.16152	602.37146	-147.69521	51.66498	649.99976
172	1.42500	-298.30713	985.09631	427.50168	-113.42268	949.04395	346.98285	-218.47165	599.69031	300.36713	-214.89227	557.01270	305.01950	-155.35899	594.69305	314.72269	-163.34276	552.76678	316.84711	-197.77290	480.84015	321.85352	-199.51573	470.56912	429.96524	-264.09857	390.35376	304.95840	-259.11887	344.83063	297.57043	-201.97827	390.28543	310.12451	-204.65381	348.31683	304.88043	-253.94397	92.70567	333.55093	-235.12633	110.94995	416.36075	-314.65073	77.91317	383.68826	-134.60246	42.24466	312.34402	-94.26622	62.47800	367.72443	-117.95465	55.35108	407.08719	-288.31894	996.17596	558.27246	-113.92569	953.10101	611.27875	-243.95251	601.35095	649.47235	-242.62216	558.58160	650.29852	-181.64676	597.12653	641.41040	-188.29323	553.28430	646.28131	-227.56998	440.10721	630.14984	-227.66621	437.92392	541.10974	-261.87338	286.43335	623.71497	-264.84348	238.86624	624.10492	-202.51917	277.86087	611.94397	-213.90901	230.84540	618.32056	-280.49951	102.61768	638.52429	-267.67816	101.53535	555.24646	-338.08997	81.16166	592.28546	-136.49065	53.93120	562.24829	-120.84579	65.17147	602.37720	-147.61435	51.71746	649.93579
173	1.43333	-299.15265	985.48022	427.42395	-113.47226	949.08075	346.97162	-218.51123	599.69086	300.35797	-214.91618	557.02948	305.00467	-155.41374	594.71161	314.70746	-163.36780	552.77179	316.84229	-197.81438	480.83795	321.84818	-199.56534	470.58481	429.95074	-264.09491	390.37918	304.94397	-259.12183	344.85577	297.56015	-201.98936	390.29587	310.10904	-204.68587	348.33646	304.87326	-253.92053	92.72469	333.54996	-235.13005	110.97729	416.34695	-314.67380	77.96874	383.69354	-134.59560	42.25856	312.33179	-94.26560	62.48216	367.72861	-117.97141	55.38760	407.09460	-288.41888	996.21588	558.24933	-114.00665	953.09155	611.25763	-243.98813	601.40283	649.44641	-242.66957	558.62354	650.28442	-181.69675	597.12915	641.37549	-188.35373	553.29608	646.25861	-227.62303	440.13037	630.14099	-227.67099	437.93707	541.11536	-261.89066	286.46912	623.71149	-264.88766	238.90285	624.09650	-202.46492	277.83182	612.28009	-213.94138	230.86076	618.30194	-280.51697	102.64978	638.51373	-267.68921	101.53470	555.23901	-338.12918	81.22707	592.26849	-136.50668	53.93758	562.25098	-120.86330	65.16039	602.38165	-147.59593	51.72743	649.94067
